<?xml version="1.0" encoding="utf-8"?><svg viewBox="0 0 800 800" xmlns="http://www.w3.org/2000/svg" xmlns:xlink="http://www.w3.org/1999/xlink"><style>:root>svg{display:none}:root>svg:target{display:block}</style><svg fill-rule="evenodd" clip-rule="evenodd" viewBox="0 0 24 24" id="arrow-right-thin" xmlns="http://www.w3.org/2000/svg"><path d="m21.883 12-7.527 6.235L15 19l9-7.521L15 4l-.645.764L21.884 11H0v1h21.883z"/></svg><svg fill="none" viewBox="0 0 72 30" id="arrow_1" xmlns="http://www.w3.org/2000/svg"><path d="M71.414 16.414a2 2 0 0 0 0-2.828L58.686.858a2 2 0 1 0-2.828 2.828L67.172 15 55.858 26.314a2 2 0 1 0 2.828 2.828l12.728-12.728ZM0 17h70v-4H0v4Z" fill="#fff"/></svg><svg viewBox="0 0 330 330" xml:space="preserve" id="arrow_2" xmlns="http://www.w3.org/2000/svg"><path d="M138.107 63.107 150 51.213V315c0 8.284 6.716 15 15 15 8.284 0 15-6.716 15-15V51.213l11.894 11.894a14.954 14.954 0 0 0 10.606 4.394 14.95 14.95 0 0 0 10.607-4.394c5.858-5.858 5.858-15.355 0-21.213l-37.5-37.5c-5.857-5.858-15.355-5.858-21.213 0l-37.5 37.5c-5.858 5.858-5.858 15.355 0 21.213 5.857 5.858 15.355 5.858 21.213 0z"/></svg><svg fill="none" viewBox="0 0 63 63" id="facebook_1" xmlns="http://www.w3.org/2000/svg"><path d="M62.628 31.286C62.628 14.242 48.815.429 31.771.429 14.727.429.914 14.242.914 31.286c0 17.044 13.813 30.857 30.857 30.857.181 0 .362 0 .543-.012V38.12h-6.63v-7.727h6.63v-5.69c0-6.593 4.026-10.185 9.908-10.185 2.82 0 5.243.205 5.942.302v6.894h-4.05c-3.194 0-3.82 1.52-3.82 3.749v4.918h7.653l-1 7.726h-6.654V60.95c12.897-3.7 22.335-15.574 22.335-29.664Z" fill="#A41C35"/></svg><svg fill="none" viewBox="0 0 63 63" id="instagram_1" xmlns="http://www.w3.org/2000/svg"><circle cx="31.714" cy="31.285" r="30.857" fill="#A41C35"/><path d="M31.714 25.5a5.789 5.789 0 0 0-5.785 5.785c0 3.193 2.593 5.792 5.785 5.792a5.8 5.8 0 0 0 5.79-5.792c0-3.192-2.598-5.785-5.79-5.785Z" fill="#fff"/><path d="M40.445 15.514H22.983c-3.88 0-7.04 3.16-7.04 7.04v17.463c0 3.886 3.16 7.04 7.04 7.04h17.462a7.043 7.043 0 0 0 7.04-7.04V22.554c0-3.88-3.154-7.04-7.04-7.04Zm-8.731 25.991c-5.634 0-10.22-4.586-10.22-10.22 0-5.633 4.586-10.213 10.22-10.213 5.633 0 10.22 4.58 10.22 10.214 0 5.633-4.587 10.22-10.22 10.22Zm10.434-18.578a2.162 2.162 0 0 1-2.164-2.158c0-1.192.972-2.164 2.164-2.164 1.192 0 2.164.972 2.164 2.164a2.162 2.162 0 0 1-2.164 2.158Z" fill="#fff"/></svg><svg fill="none" viewBox="0 0 62 62" id="phone_1" xmlns="http://www.w3.org/2000/svg"><circle cx="30.857" cy="30.857" r="30.857" fill="#A41C35"/><path d="m41.2 35.778-3.483-.398a2.73 2.73 0 0 0-2.25.781l-2.523 2.524a20.634 20.634 0 0 1-9.038-9.038l2.537-2.537a2.73 2.73 0 0 0 .782-2.249l-.398-3.456a2.745 2.745 0 0 0-2.729-2.428h-2.372c-1.55 0-2.84 1.29-2.743 2.84.727 11.711 10.093 21.065 21.792 21.791 1.55.096 2.839-1.193 2.839-2.742v-2.373c.013-1.385-1.029-2.55-2.414-2.715Z" fill="#fff"/></svg></svg>