<?xml version="1.0" encoding="utf-8"?><svg xmlns="http://www.w3.org/2000/svg" xmlns:xlink="http://www.w3.org/1999/xlink"><symbol fill="currentColor" viewBox="0 0 63 63" id="__facebook_1" xmlns="http://www.w3.org/2000/svg"><path d="M62.628 31.286C62.628 14.242 48.815.429 31.771.429 14.727.429.914 14.242.914 31.286c0 17.044 13.813 30.857 30.857 30.857.181 0 .362 0 .543-.012V38.12h-6.63v-7.727h6.63v-5.69c0-6.593 4.026-10.185 9.908-10.185 2.82 0 5.243.205 5.942.302v6.894h-4.05c-3.194 0-3.82 1.52-3.82 3.749v4.918h7.653l-1 7.726h-6.654V60.95c12.897-3.7 22.335-15.574 22.335-29.664Z"/></symbol><symbol fill="none" viewBox="0 0 47 47" id="__phone_2" xmlns="http://www.w3.org/2000/svg"><rect width="46.629" height="46.629" rx="23.314" fill="#A41C35"/><path d="M34.298 35.658c-2.785 0-5.5-.615-8.143-1.846a24.263 24.263 0 0 1-7.027-4.922 24.904 24.904 0 0 1-4.922-7.043c-1.241-2.644-1.862-5.359-1.862-8.143v-.68c0-.238.021-.464.065-.68h7.577l1.198 6.508-3.692 3.724c.907 1.554 2.046 3.012 3.417 4.372a24.12 24.12 0 0 0 4.517 3.53l3.756-3.757 6.476 1.295v7.577a12.973 12.973 0 0 1-1.36.065Z" fill="#fff"/></symbol><symbol fill="none" viewBox="0 0 63 63" id="_instagram_1" xmlns="http://www.w3.org/2000/svg"><circle cx="31.714" cy="31.285" r="30.857" fill="#A41C35"/><path d="M31.714 25.5a5.789 5.789 0 0 0-5.785 5.785c0 3.193 2.593 5.792 5.785 5.792a5.8 5.8 0 0 0 5.79-5.792c0-3.192-2.598-5.785-5.79-5.785Z" fill="#fff"/><path d="M40.445 15.514H22.983c-3.88 0-7.04 3.16-7.04 7.04v17.463c0 3.886 3.16 7.04 7.04 7.04h17.462a7.043 7.043 0 0 0 7.04-7.04V22.554c0-3.88-3.154-7.04-7.04-7.04Zm-8.731 25.991c-5.634 0-10.22-4.586-10.22-10.22 0-5.633 4.586-10.213 10.22-10.213 5.633 0 10.22 4.58 10.22 10.214 0 5.633-4.587 10.22-10.22 10.22Zm10.434-18.578a2.162 2.162 0 0 1-2.164-2.158c0-1.192.972-2.164 2.164-2.164 1.192 0 2.164.972 2.164 2.164a2.162 2.162 0 0 1-2.164 2.158Z" fill="#fff"/></symbol><symbol fill-rule="evenodd" clip-rule="evenodd" viewBox="0 0 24 24" id="arrow-right-thin" xmlns="http://www.w3.org/2000/svg"><path d="m21.883 12-7.527 6.235L15 19l9-7.521L15 4l-.645.764L21.884 11H0v1h21.883z"/></symbol><symbol fill="none" viewBox="0 0 72 30" id="arrow_1" xmlns="http://www.w3.org/2000/svg"><path d="M71.414 16.414a2 2 0 0 0 0-2.828L58.686.858a2 2 0 1 0-2.828 2.828L67.172 15 55.858 26.314a2 2 0 1 0 2.828 2.828l12.728-12.728ZM0 17h70v-4H0v4Z" fill="#fff"/></symbol><symbol viewBox="0 0 330 330" xml:space="preserve" id="arrow_2" xmlns="http://www.w3.org/2000/svg"><path d="M138.107 63.107 150 51.213V315c0 8.284 6.716 15 15 15 8.284 0 15-6.716 15-15V51.213l11.894 11.894a14.954 14.954 0 0 0 10.606 4.394 14.95 14.95 0 0 0 10.607-4.394c5.858-5.858 5.858-15.355 0-21.213l-37.5-37.5c-5.857-5.858-15.355-5.858-21.213 0l-37.5 37.5c-5.858 5.858-5.858 15.355 0 21.213 5.857 5.858 15.355 5.858 21.213 0z"/></symbol><symbol fill="none" viewBox="0 0 110 37" id="color_logo_1" xmlns="http://www.w3.org/2000/svg"><path d="M37.38 10.461c-5.08.01-8.982 3.933-8.968 9.019.014 5.063 3.946 8.952 9.049 8.94 5.074-.012 8.996-3.954 8.976-9.02-.02-5.067-3.951-8.949-9.056-8.939Zm2.004 13.985c-1.902.847-3.7.51-5.263-.853-2.023-1.767-2.356-5.16-.775-7.435a4.933 4.933 0 0 1 7.925-.301c.793.972 1.206 2.205 1.204 4.02-.075 1.836-.966 3.622-3.09 4.57Z" fill="#DB4437"/><path d="M57 10.455c-5.114.008-9.039 3.931-9.025 9.039.01 5.04 3.963 8.934 9.06 8.928 5.056-.007 8.982-3.911 8.987-8.932.004-5.12-3.915-9.041-9.022-9.035Zm-.652 14.37c-1.923-.215-3.565-1.68-4.164-3.71-.764-2.593.318-5.395 2.517-6.532 3.19-1.655 6.937.455 7.314 4.112.025.255.03.51.034.581-.001 3.511-2.544 5.903-5.7 5.55Z" fill="#F4B400"/><path d="M97.658 22.148c3.965-1.643 7.934-3.286 11.974-4.958-.31-.713-.551-1.348-.854-1.953-2.281-4.53-7.188-6.13-11.428-3.658-2.782 1.621-4.023 4.211-4.201 7.35-.37 6.79 6.089 11.393 12.332 8.792 1.639-.683 2.928-1.809 3.959-3.283l-3.055-2.024c-2.513 3.73-7.51 2.883-8.727-.266Zm2.89-8.05c1.795-.51 3.65.201 4.402 1.744l-7.96 3.31c-.198-2.268 1.355-4.43 3.558-5.054Z" fill="#DB4437"/><path d="M26.968 13.202H15.106c-.232 0-.462.03-.694.045h-.127c-.036.02-.1.04-.1.06a161.513 161.513 0 0 0-.024 3.51c0 .054.227.106.348.16.146.022.293.037.44.044h8.252c-.193 2.42-1.235 4.357-3.2 5.812-4.083 3.025-12 2.507-14.923-4.16-1.695-3.863-1.2-7.596 1.548-10.84 2.71-3.199 6.938-4.315 10.788-2.91 1.288.469 2.45 1.28 3.593 1.893l2.68-2.511s-.193-.144-.268-.214C18.525-.444 11.01-.714 5.516 3.454c-6.601 5.012-7.41 14.484-1.707 20.489 3.358 3.535 7.539 4.926 12.348 4.39 5.335-.592 9.49-4.266 10.661-9.34.448-1.9.5-3.871.15-5.79ZM84.788 11.048h-3.703l-.061 1.383-.782-.594-.891-.596c-1.676-.933-3.447-.993-5.242-.487-3.423.962-6.066 4.036-6.42 7.55-.393 3.89 1.09 6.936 4.433 8.983 2.73 1.672 6.466 1.62 8.759-.764.019-.019.075 0 .127 0 0 .739.064 1.48-.011 2.205-.223 2.135-1.364 3.518-3.243 4.028-2.005.545-4.007-.107-5.228-1.726-.292-.382-.526-.813-.815-1.273l-3.366 1.4c1.897 4.55 6.862 6.437 11.383 4.71l2.108-1.218a.048.048 0 0 0 .053-.02.047.047 0 0 0 .007-.02l.117-.107.127-.128.43-.449-.006-.015c.323-.411.699-.792.959-1.24.938-1.618 1.288-3.396 1.29-5.25V11.515c.003-.14-.014-.285-.025-.467Zm-3.939 10.868c-.863 2.083-2.728 3.152-4.916 2.92-2.015-.215-3.769-1.878-4.223-4.029-.096-.452-.128-.919-.162-1.22.075-2.127.787-3.756 2.483-4.843a4.53 4.53 0 0 1 6.314 1.345c1.19 1.839 1.337 3.817.504 5.827Z" fill="#4285F4"/><path d="M87.477 1.476V27.85h3.882V1.476h-3.882Z" fill="#0F9D58"/></symbol><symbol fill="none" viewBox="0 0 73 24" id="color_logo_2" xmlns="http://www.w3.org/2000/svg"><path d="M31.2 12.63c0 3.453-2.7 5.997-6.016 5.997-3.315 0-6.016-2.544-6.016-5.997 0-3.477 2.701-5.997 6.016-5.997S31.2 9.153 31.2 12.63Zm-2.633 0c0-2.158-1.566-3.634-3.383-3.634s-3.382 1.476-3.382 3.634c0 2.136 1.565 3.634 3.382 3.634 1.817 0 3.383-1.5 3.383-3.634ZM44.179 12.63c0 3.453-2.701 5.997-6.016 5.997s-6.016-2.544-6.016-5.997c0-3.474 2.7-5.997 6.016-5.997 3.315 0 6.016 2.52 6.016 5.997Zm-2.634 0c0-2.158-1.565-3.634-3.382-3.634-1.817 0-3.383 1.476-3.383 3.634 0 2.136 1.566 3.634 3.383 3.634s3.382-1.5 3.382-3.634ZM56.617 6.995v10.767c0 4.43-2.612 6.238-5.7 6.238-2.906 0-4.656-1.944-5.316-3.534l2.293-.954c.409.976 1.41 2.128 3.02 2.128 1.977 0 3.202-1.22 3.202-3.515v-.863h-.092c-.59.727-1.725 1.363-3.158 1.363-2.999 0-5.746-2.612-5.746-5.973 0-3.386 2.747-6.02 5.746-6.02 1.43 0 2.566.636 3.158 1.342h.092v-.976h2.501v-.003Zm-2.314 5.657c0-2.112-1.41-3.656-3.202-3.656-1.817 0-3.34 1.544-3.34 3.656 0 2.09 1.523 3.612 3.34 3.612 1.793 0 3.202-1.522 3.202-3.612ZM60.74.684V18.26h-2.568V.684h2.569ZM70.75 14.604l2.045 1.363c-.66.976-2.25 2.658-4.997 2.658-3.407 0-5.951-2.634-5.951-5.998 0-3.566 2.566-5.997 5.656-5.997 3.112 0 4.635 2.477 5.132 3.815l.273.681-8.017 3.32c.614 1.204 1.569 1.818 2.907 1.818 1.341 0 2.271-.66 2.953-1.66Zm-6.291-2.158 5.359-2.225c-.295-.75-1.182-1.271-2.225-1.271-1.339 0-3.202 1.182-3.134 3.496ZM9.445 11.07V8.525h8.574c.084.444.127.968.127 1.536 0 1.91-.522 4.27-2.204 5.952-1.636 1.703-3.726 2.612-6.495 2.612C4.316 18.625 0 14.445 0 9.312 0 4.18 4.315 0 9.447 0c2.84 0 4.862 1.114 6.382 2.566l-1.796 1.795c-1.09-1.022-2.566-1.817-4.588-1.817-3.748 0-6.679 3.02-6.679 6.768 0 3.748 2.931 6.768 6.679 6.768 2.43 0 3.815-.976 4.702-1.863.72-.719 1.192-1.747 1.379-3.15l-6.081.003Z" fill="#fff"/></symbol><symbol fill="none" viewBox="0 0 47 47" id="email_2" xmlns="http://www.w3.org/2000/svg"><rect width="46.629" height="46.629" rx="23.314" fill="#A41C35"/><path d="m12.423 15.365 10.346 9.89c.306.293.715.467 1.147.488.432.022.858-.111 1.194-.373l.132-.114 10.34-9.884c.033.123.055.247.067.375l.009.195v13.372c0 .562-.222 1.104-.622 1.516-.4.412-.948.665-1.535.707l-.174.005H14.675a2.391 2.391 0 0 1-1.586-.594 2.191 2.191 0 0 1-.74-1.467l-.005-.167V15.942c0-.133.011-.262.035-.39l.044-.187Zm20.904-1.651c.14 0 .28.011.413.034l.199.044-9.932 9.494-9.936-9.496c.129-.034.261-.056.397-.067l.207-.01h18.652Z" fill="#fff"/></symbol><symbol fill="currentColor" viewBox="0 0 63 63" id="facebook_1" xmlns="http://www.w3.org/2000/svg"><path d="M62.628 31.286C62.628 14.242 48.815.429 31.771.429 14.727.429.914 14.242.914 31.286c0 17.044 13.813 30.857 30.857 30.857.181 0 .362 0 .543-.012V38.12h-6.63v-7.727h6.63v-5.69c0-6.593 4.026-10.185 9.908-10.185 2.82 0 5.243.205 5.942.302v6.894h-4.05c-3.194 0-3.82 1.52-3.82 3.749v4.918h7.653l-1 7.726h-6.654V60.95c12.897-3.7 22.335-15.574 22.335-29.664Z"/></symbol><symbol fill="none" viewBox="0 0 128 128" id="financing-block_1" xmlns="http://www.w3.org/2000/svg"><rect width="128" height="128" rx="16" fill="#A41C35"/><g clip-path="url(#ha)" fill="#fff"><path d="m93.078 36.524 4.858-.407-.393-4.674-13.285 1.115 1.115 13.285 4.674-.392-.489-5.82C95.802 46.159 99.31 54.814 99.31 64c0 9.431-3.673 18.298-10.342 24.968C82.298 95.636 73.432 99.308 64 99.308c-9.431 0-18.299-3.672-24.968-10.341C32.363 82.298 28.69 73.432 28.69 64c0-9.431 3.673-18.299 10.342-24.968C45.702 32.363 54.568 28.69 64 28.69V24c-10.684 0-20.73 4.16-28.284 11.716C28.16 43.27 24 53.316 24 64c0 10.685 4.16 20.73 11.716 28.284C43.27 99.84 53.316 104 64 104c10.684 0 20.73-4.16 28.284-11.716C99.84 84.73 104 74.684 104 64c0-10.346-3.926-20.097-10.922-27.476Z"/><path d="M61.655 44.79v-5.496c-11.816 1.113-21.248 10.544-22.361 22.361h5.496v4.69h-5.496c1.113 11.817 10.544 21.248 22.36 22.361V83.21h4.691v5.496c11.817-1.113 21.248-10.544 22.361-22.36H83.21v-4.691h5.496c-1.113-11.816-10.544-21.248-22.36-22.361v5.496h-4.691Zm4.69 20.301-8.825 7.426-3.02-3.589 7.155-6.02V49.722h4.69v15.37Z"/></g><defs><clipPath id="ha"><path fill="#fff" transform="translate(24 24)" d="M0 0h80v80H0z"/></clipPath></defs></symbol><symbol fill="none" viewBox="0 0 128 128" id="financing-block_2" xmlns="http://www.w3.org/2000/svg"><rect width="128" height="128" rx="16" fill="#A41C35"/><g clip-path="url(#ia)" fill="#fff"><path d="M85.094 66.344c-10.355 0-18.75 8.395-18.75 18.75S74.739 104 85.094 104 104 95.449 104 85.094c0-10.355-8.551-18.75-18.906-18.75Zm0 16.406a7.04 7.04 0 0 1 7.031 7.031c0 3.052-1.965 5.629-4.688 6.6v5.275H82.75v-5.275c-2.722-.971-4.688-3.548-4.688-6.6h4.688a2.345 2.345 0 0 0 2.344 2.344 2.345 2.345 0 0 0 2.344-2.344 2.345 2.345 0 0 0-2.344-2.344 7.04 7.04 0 0 1-7.031-7.03c0-3.052 1.965-5.63 4.687-6.6v-5.12h4.688v5.12c2.722.97 4.687 3.547 4.687 6.6h-4.688a2.345 2.345 0 0 0-2.343-2.344 2.345 2.345 0 0 0-2.344 2.343 2.345 2.345 0 0 0 2.344 2.344ZM94.469 28.688h-9.375V24h-4.688v4.688H75.72V24H71.03v4.688H47.594V24h-4.688v4.688H38.22V24H33.53v4.688H24v14.218h70.469V28.688Z"/><path d="M61.656 85.094c0-12.923 10.515-23.438 23.438-23.438 3.337 0 6.499.724 9.375 1.987v-16.05H24V94.47h39.643a23.246 23.246 0 0 1-1.987-9.375ZM75.72 52.28h9.375v4.688h-9.375V52.28Zm-14.063 0h9.375v4.688h-9.375V52.28Zm0 9.375h9.375v4.688h-9.375v-4.688ZM42.906 75.72h-9.375V71.03h9.375v4.688Zm0-9.375h-9.375v-4.688h9.375v4.688Zm0-9.375h-9.375V52.28h9.375v4.688Zm14.063 18.75h-9.375V71.03h9.375v4.688Zm0-9.375h-9.375v-4.688h9.375v4.688Zm0-9.375h-9.375V52.28h9.375v4.688Z"/></g><defs><clipPath id="ia"><path fill="#fff" transform="translate(24 24)" d="M0 0h80v80H0z"/></clipPath></defs></symbol><symbol fill="none" viewBox="0 0 128 128" id="financing-block_3" xmlns="http://www.w3.org/2000/svg"><rect width="128" height="128" rx="16" fill="#A41C35"/><g clip-path="url(#ja)" fill="#fff"><path d="M78.219 52.438c-14.216 0-25.781 11.565-25.781 25.78 0 14.216 11.565 25.782 25.78 25.782C92.435 104 104 92.434 104 78.219c0-14.216-11.566-25.781-25.781-25.781Zm0 23.437a7.04 7.04 0 0 1 7.031 7.031c0 3.052-1.965 5.629-4.688 6.6v5.119h-4.687v-5.12c-2.722-.97-4.688-3.547-4.688-6.599h4.688a2.345 2.345 0 0 0 2.344 2.344 2.345 2.345 0 0 0 2.344-2.344 2.345 2.345 0 0 0-2.344-2.344 7.04 7.04 0 0 1-7.031-7.03c0-3.052 1.965-5.63 4.687-6.6v-5.12h4.688v5.12c2.722.97 4.687 3.548 4.687 6.6h-4.688a2.345 2.345 0 0 0-2.343-2.344 2.345 2.345 0 0 0-2.344 2.343 2.345 2.345 0 0 0 2.344 2.344ZM50.094 52.438c14.456 0 25.781-6.178 25.781-14.063C75.875 30.49 64.55 24 50.094 24S24 30.49 24 38.375s11.638 14.063 26.094 14.063ZM24 76.744v3.819c0 7.885 11.638 14.062 26.094 14.062.82 0 1.614-.076 2.422-.115a30.27 30.27 0 0 1-3.928-9.316c-10.454-.289-19.531-3.501-24.588-8.45ZM47.863 80.443c-.054-.737-.113-1.474-.113-2.224 0-2.444.32-4.808.866-7.087C38.15 70.85 29.061 67.635 24 62.682V66.5c0 7.467 10.51 13.335 23.863 13.943ZM50.094 66.5h.007a30.575 30.575 0 0 1 6.583-9.815 52.31 52.31 0 0 1-6.59.44c-11.128 0-20.793-3.318-26.094-8.506v3.819C24 60.322 35.638 66.5 50.094 66.5Z"/></g><defs><clipPath id="ja"><path fill="#fff" transform="translate(24 24)" d="M0 0h80v80H0z"/></clipPath></defs></symbol><symbol fill="currentColor" viewBox="0 0 63 63" id="instagram_1" xmlns="http://www.w3.org/2000/svg"><circle cx="31.714" cy="31.285" r="30.857"/><path d="M31.714 25.5a5.789 5.789 0 0 0-5.785 5.785c0 3.193 2.593 5.792 5.785 5.792a5.8 5.8 0 0 0 5.79-5.792c0-3.192-2.598-5.785-5.79-5.785Z" fill="#fff"/><path d="M40.445 15.514H22.983c-3.88 0-7.04 3.16-7.04 7.04v17.463c0 3.886 3.16 7.04 7.04 7.04h17.462a7.043 7.043 0 0 0 7.04-7.04V22.554c0-3.88-3.154-7.04-7.04-7.04Zm-8.731 25.991c-5.634 0-10.22-4.586-10.22-10.22 0-5.633 4.586-10.213 10.22-10.213 5.633 0 10.22 4.58 10.22 10.214 0 5.633-4.587 10.22-10.22 10.22Zm10.434-18.578a2.162 2.162 0 0 1-2.164-2.158c0-1.192.972-2.164 2.164-2.164 1.192 0 2.164.972 2.164 2.164a2.162 2.162 0 0 1-2.164 2.158Z" fill="#fff"/></symbol><symbol fill="none" viewBox="0 0 47 47" id="map_point_2" xmlns="http://www.w3.org/2000/svg"><rect width="46.629" height="46.629" rx="23.314" fill="#A41C35"/><path d="M24 23.314a2.53 2.53 0 0 0 1.817-.725c.503-.483.755-1.064.755-1.743s-.252-1.26-.755-1.744a2.532 2.532 0 0 0-1.816-.725c-.708 0-1.313.242-1.816.725-.504.484-.756 1.065-.756 1.744s.252 1.26.756 1.743a2.526 2.526 0 0 0 1.816.726Zm0 12.343c-3.45-2.818-6.026-5.436-7.73-7.853-1.703-2.417-2.555-4.654-2.555-6.711 0-3.086 1.034-5.544 3.102-7.375 2.068-1.83 4.462-2.746 7.184-2.746 2.721 0 5.115.915 7.183 2.746 2.068 1.83 3.102 4.29 3.102 7.375 0 2.057-.851 4.294-2.554 6.71-1.704 2.418-4.281 5.036-7.731 7.854Z" fill="#fff"/></symbol><symbol fill="none" viewBox="0 0 24 24" id="map_point_3" xmlns="http://www.w3.org/2000/svg"><path d="M12 1.5a8.26 8.26 0 0 0-8.25 8.25c0 7.06 7.5 12.39 7.82 12.614a.75.75 0 0 0 .86 0c.32-.223 7.82-5.555 7.82-12.614A8.26 8.26 0 0 0 12 1.5Zm0 5.25a3 3 0 1 1 0 6 3 3 0 0 1 0-6Z" fill="#A41C35"/></symbol><symbol fill="currentColor" viewBox="0 0 62 62" id="phone_1" xmlns="http://www.w3.org/2000/svg"><circle cx="30.857" cy="30.857" r="30.857"/><path d="m41.2 35.778-3.483-.398a2.73 2.73 0 0 0-2.25.781l-2.523 2.524a20.634 20.634 0 0 1-9.038-9.038l2.537-2.537a2.73 2.73 0 0 0 .782-2.249l-.398-3.456a2.745 2.745 0 0 0-2.729-2.428h-2.372c-1.55 0-2.84 1.29-2.743 2.84.727 11.711 10.093 21.065 21.792 21.791 1.55.096 2.839-1.193 2.839-2.742v-2.373c.013-1.385-1.029-2.55-2.414-2.715Z" fill="#fff"/></symbol><symbol fill="none" viewBox="0 0 18 18" id="star_gold_1" xmlns="http://www.w3.org/2000/svg"><path d="M16.819 6.848a1.153 1.153 0 0 0-1.027-.801l-4.176-.289-1.547-3.902A1.153 1.153 0 0 0 9 1.125a1.153 1.153 0 0 0-1.069.731L6.356 5.78l-4.148.267a1.16 1.16 0 0 0-1.027.801 1.181 1.181 0 0 0 .366 1.273l3.192 2.7-.95 3.734a1.3 1.3 0 0 0 .493 1.378 1.265 1.265 0 0 0 1.413.042l3.298-2.088h.014l3.55 2.243c.183.118.395.181.612.182a1.16 1.16 0 0 0 1.111-1.462l-1.005-4.085 3.178-2.644a1.18 1.18 0 0 0 .366-1.273Z" fill="#FFC700"/></symbol></svg>