<?xml version="1.0" encoding="utf-8"?><svg xmlns="http://www.w3.org/2000/svg" xmlns:xlink="http://www.w3.org/1999/xlink"><symbol fill-rule="evenodd" clip-rule="evenodd" viewBox="0 0 24 24" id="arrow-right-thin" xmlns="http://www.w3.org/2000/svg"><path d="m21.883 12-7.527 6.235L15 19l9-7.521L15 4l-.645.764L21.884 11H0v1h21.883z"/></symbol><symbol fill="none" viewBox="0 0 72 30" id="arrow_1" xmlns="http://www.w3.org/2000/svg"><path d="M71.414 16.414a2 2 0 0 0 0-2.828L58.686.858a2 2 0 1 0-2.828 2.828L67.172 15 55.858 26.314a2 2 0 1 0 2.828 2.828l12.728-12.728ZM0 17h70v-4H0v4Z" fill="#fff"/></symbol><symbol viewBox="0 0 330 330" xml:space="preserve" id="arrow_2" xmlns="http://www.w3.org/2000/svg"><path d="M138.107 63.107 150 51.213V315c0 8.284 6.716 15 15 15 8.284 0 15-6.716 15-15V51.213l11.894 11.894a14.954 14.954 0 0 0 10.606 4.394 14.95 14.95 0 0 0 10.607-4.394c5.858-5.858 5.858-15.355 0-21.213l-37.5-37.5c-5.857-5.858-15.355-5.858-21.213 0l-37.5 37.5c-5.858 5.858-5.858 15.355 0 21.213 5.857 5.858 15.355 5.858 21.213 0z"/></symbol><symbol fill="none" viewBox="0 0 47 47" id="email_2" xmlns="http://www.w3.org/2000/svg"><rect width="46.629" height="46.629" rx="23.314" fill="#A41C35"/><path d="m12.423 15.365 10.346 9.89c.306.293.715.467 1.147.488.432.022.858-.111 1.194-.373l.132-.114 10.34-9.884c.033.123.055.247.067.375l.009.195v13.372c0 .562-.222 1.104-.622 1.516-.4.412-.948.665-1.535.707l-.174.005H14.675a2.391 2.391 0 0 1-1.586-.594 2.191 2.191 0 0 1-.74-1.467l-.005-.167V15.942c0-.133.011-.262.035-.39l.044-.187Zm20.904-1.651c.14 0 .28.011.413.034l.199.044-9.932 9.494-9.936-9.496c.129-.034.261-.056.397-.067l.207-.01h18.652Z" fill="#fff"/></symbol><symbol fill="none" viewBox="0 0 63 63" id="facebook_1" xmlns="http://www.w3.org/2000/svg"><path d="M62.628 31.286C62.628 14.242 48.815.429 31.771.429 14.727.429.914 14.242.914 31.286c0 17.044 13.813 30.857 30.857 30.857.181 0 .362 0 .543-.012V38.12h-6.63v-7.727h6.63v-5.69c0-6.593 4.026-10.185 9.908-10.185 2.82 0 5.243.205 5.942.302v6.894h-4.05c-3.194 0-3.82 1.52-3.82 3.749v4.918h7.653l-1 7.726h-6.654V60.95c12.897-3.7 22.335-15.574 22.335-29.664Z" fill="#000"/></symbol><symbol fill="none" viewBox="0 0 128 128" id="financing-block_1" xmlns="http://www.w3.org/2000/svg"><rect width="128" height="128" rx="16" fill="#A41C35"/><g clip-path="url(#fa)" fill="#fff"><path d="m93.078 36.524 4.858-.407-.393-4.674-13.285 1.115 1.115 13.285 4.674-.392-.489-5.82C95.802 46.159 99.31 54.814 99.31 64c0 9.431-3.673 18.298-10.342 24.968C82.298 95.636 73.432 99.308 64 99.308c-9.431 0-18.299-3.672-24.968-10.341C32.363 82.298 28.69 73.432 28.69 64c0-9.431 3.673-18.299 10.342-24.968C45.702 32.363 54.568 28.69 64 28.69V24c-10.684 0-20.73 4.16-28.284 11.716C28.16 43.27 24 53.316 24 64c0 10.685 4.16 20.73 11.716 28.284C43.27 99.84 53.316 104 64 104c10.684 0 20.73-4.16 28.284-11.716C99.84 84.73 104 74.684 104 64c0-10.346-3.926-20.097-10.922-27.476Z"/><path d="M61.655 44.79v-5.496c-11.816 1.113-21.248 10.544-22.361 22.361h5.496v4.69h-5.496c1.113 11.817 10.544 21.248 22.36 22.361V83.21h4.691v5.496c11.817-1.113 21.248-10.544 22.361-22.36H83.21v-4.691h5.496c-1.113-11.816-10.544-21.248-22.36-22.361v5.496h-4.691Zm4.69 20.301-8.825 7.426-3.02-3.589 7.155-6.02V49.722h4.69v15.37Z"/></g><defs><clipPath id="fa"><path fill="#fff" transform="translate(24 24)" d="M0 0h80v80H0z"/></clipPath></defs></symbol><symbol fill="none" viewBox="0 0 128 128" id="financing-block_2" xmlns="http://www.w3.org/2000/svg"><rect width="128" height="128" rx="16" fill="#A41C35"/><g clip-path="url(#ga)" fill="#fff"><path d="M85.094 66.344c-10.355 0-18.75 8.395-18.75 18.75S74.739 104 85.094 104 104 95.449 104 85.094c0-10.355-8.551-18.75-18.906-18.75Zm0 16.406a7.04 7.04 0 0 1 7.031 7.031c0 3.052-1.965 5.629-4.688 6.6v5.275H82.75v-5.275c-2.722-.971-4.688-3.548-4.688-6.6h4.688a2.345 2.345 0 0 0 2.344 2.344 2.345 2.345 0 0 0 2.344-2.344 2.345 2.345 0 0 0-2.344-2.344 7.04 7.04 0 0 1-7.031-7.03c0-3.052 1.965-5.63 4.687-6.6v-5.12h4.688v5.12c2.722.97 4.687 3.547 4.687 6.6h-4.688a2.345 2.345 0 0 0-2.343-2.344 2.345 2.345 0 0 0-2.344 2.343 2.345 2.345 0 0 0 2.344 2.344ZM94.469 28.688h-9.375V24h-4.688v4.688H75.72V24H71.03v4.688H47.594V24h-4.688v4.688H38.22V24H33.53v4.688H24v14.218h70.469V28.688Z"/><path d="M61.656 85.094c0-12.923 10.515-23.438 23.438-23.438 3.337 0 6.499.724 9.375 1.987v-16.05H24V94.47h39.643a23.246 23.246 0 0 1-1.987-9.375ZM75.72 52.28h9.375v4.688h-9.375V52.28Zm-14.063 0h9.375v4.688h-9.375V52.28Zm0 9.375h9.375v4.688h-9.375v-4.688ZM42.906 75.72h-9.375V71.03h9.375v4.688Zm0-9.375h-9.375v-4.688h9.375v4.688Zm0-9.375h-9.375V52.28h9.375v4.688Zm14.063 18.75h-9.375V71.03h9.375v4.688Zm0-9.375h-9.375v-4.688h9.375v4.688Zm0-9.375h-9.375V52.28h9.375v4.688Z"/></g><defs><clipPath id="ga"><path fill="#fff" transform="translate(24 24)" d="M0 0h80v80H0z"/></clipPath></defs></symbol><symbol fill="none" viewBox="0 0 128 128" id="financing-block_3" xmlns="http://www.w3.org/2000/svg"><rect width="128" height="128" rx="16" fill="#A41C35"/><g clip-path="url(#ha)" fill="#fff"><path d="M78.219 52.438c-14.216 0-25.781 11.565-25.781 25.78 0 14.216 11.565 25.782 25.78 25.782C92.435 104 104 92.434 104 78.219c0-14.216-11.566-25.781-25.781-25.781Zm0 23.437a7.04 7.04 0 0 1 7.031 7.031c0 3.052-1.965 5.629-4.688 6.6v5.119h-4.687v-5.12c-2.722-.97-4.688-3.547-4.688-6.599h4.688a2.345 2.345 0 0 0 2.344 2.344 2.345 2.345 0 0 0 2.344-2.344 2.345 2.345 0 0 0-2.344-2.344 7.04 7.04 0 0 1-7.031-7.03c0-3.052 1.965-5.63 4.687-6.6v-5.12h4.688v5.12c2.722.97 4.687 3.548 4.687 6.6h-4.688a2.345 2.345 0 0 0-2.343-2.344 2.345 2.345 0 0 0-2.344 2.343 2.345 2.345 0 0 0 2.344 2.344ZM50.094 52.438c14.456 0 25.781-6.178 25.781-14.063C75.875 30.49 64.55 24 50.094 24S24 30.49 24 38.375s11.638 14.063 26.094 14.063ZM24 76.744v3.819c0 7.885 11.638 14.062 26.094 14.062.82 0 1.614-.076 2.422-.115a30.27 30.27 0 0 1-3.928-9.316c-10.454-.289-19.531-3.501-24.588-8.45ZM47.863 80.443c-.054-.737-.113-1.474-.113-2.224 0-2.444.32-4.808.866-7.087C38.15 70.85 29.061 67.635 24 62.682V66.5c0 7.467 10.51 13.335 23.863 13.943ZM50.094 66.5h.007a30.575 30.575 0 0 1 6.583-9.815 52.31 52.31 0 0 1-6.59.44c-11.128 0-20.793-3.318-26.094-8.506v3.819C24 60.322 35.638 66.5 50.094 66.5Z"/></g><defs><clipPath id="ha"><path fill="#fff" transform="translate(24 24)" d="M0 0h80v80H0z"/></clipPath></defs></symbol><symbol fill="none" viewBox="0 0 63 63" id="instagram_1" xmlns="http://www.w3.org/2000/svg"><circle cx="31.714" cy="31.285" r="30.857" fill="#000"/><path d="M31.714 25.5a5.789 5.789 0 0 0-5.785 5.785c0 3.193 2.593 5.792 5.785 5.792a5.8 5.8 0 0 0 5.79-5.792c0-3.192-2.598-5.785-5.79-5.785Z" fill="#fff"/><path d="M40.445 15.514H22.983c-3.88 0-7.04 3.16-7.04 7.04v17.463c0 3.886 3.16 7.04 7.04 7.04h17.462a7.043 7.043 0 0 0 7.04-7.04V22.554c0-3.88-3.154-7.04-7.04-7.04Zm-8.731 25.991c-5.634 0-10.22-4.586-10.22-10.22 0-5.633 4.586-10.213 10.22-10.213 5.633 0 10.22 4.58 10.22 10.214 0 5.633-4.587 10.22-10.22 10.22Zm10.434-18.578a2.162 2.162 0 0 1-2.164-2.158c0-1.192.972-2.164 2.164-2.164 1.192 0 2.164.972 2.164 2.164a2.162 2.162 0 0 1-2.164 2.158Z" fill="#fff"/></symbol><symbol fill="none" viewBox="0 0 47 47" id="map_point_2" xmlns="http://www.w3.org/2000/svg"><rect width="46.629" height="46.629" rx="23.314" fill="#A41C35"/><path d="M24 23.314a2.53 2.53 0 0 0 1.817-.725c.503-.483.755-1.064.755-1.743s-.252-1.26-.755-1.744a2.532 2.532 0 0 0-1.816-.725c-.708 0-1.313.242-1.816.725-.504.484-.756 1.065-.756 1.744s.252 1.26.756 1.743a2.526 2.526 0 0 0 1.816.726Zm0 12.343c-3.45-2.818-6.026-5.436-7.73-7.853-1.703-2.417-2.555-4.654-2.555-6.711 0-3.086 1.034-5.544 3.102-7.375 2.068-1.83 4.462-2.746 7.184-2.746 2.721 0 5.115.915 7.183 2.746 2.068 1.83 3.102 4.29 3.102 7.375 0 2.057-.851 4.294-2.554 6.71-1.704 2.418-4.281 5.036-7.731 7.854Z" fill="#fff"/></symbol><symbol fill="none" viewBox="0 0 62 62" id="phone_1" xmlns="http://www.w3.org/2000/svg"><circle cx="30.857" cy="30.857" r="30.857" fill="#A41C35"/><path d="m41.2 35.778-3.483-.398a2.73 2.73 0 0 0-2.25.781l-2.523 2.524a20.634 20.634 0 0 1-9.038-9.038l2.537-2.537a2.73 2.73 0 0 0 .782-2.249l-.398-3.456a2.745 2.745 0 0 0-2.729-2.428h-2.372c-1.55 0-2.84 1.29-2.743 2.84.727 11.711 10.093 21.065 21.792 21.791 1.55.096 2.839-1.193 2.839-2.742v-2.373c.013-1.385-1.029-2.55-2.414-2.715Z" fill="#fff"/></symbol><symbol fill="none" viewBox="0 0 47 47" id="phone_2" xmlns="http://www.w3.org/2000/svg"><rect width="46.629" height="46.629" rx="23.314" fill="#A41C35"/><path d="M34.298 35.658c-2.785 0-5.5-.615-8.143-1.846a24.263 24.263 0 0 1-7.027-4.922 24.904 24.904 0 0 1-4.922-7.043c-1.241-2.644-1.862-5.359-1.862-8.143v-.68c0-.238.021-.464.065-.68h7.577l1.198 6.508-3.692 3.724c.907 1.554 2.046 3.012 3.417 4.372a24.12 24.12 0 0 0 4.517 3.53l3.756-3.757 6.476 1.295v7.577a12.973 12.973 0 0 1-1.36.065Z" fill="#fff"/></symbol></svg>