<svg width="63" height="63" viewBox="0 0 63 63" fill="none" xmlns="http://www.w3.org/2000/svg">
<circle cx="31.7136" cy="31.2854" r="30.8571" fill="#A41C35"/>
<path d="M31.7137 25.5005C28.5215 25.5005 25.9287 28.0933 25.9287 31.2854C25.9287 34.4776 28.5215 37.0767 31.7137 37.0767C34.9058 37.0767 37.5049 34.4776 37.5049 31.2854C37.5049 28.0933 34.9058 25.5005 31.7137 25.5005Z" fill="white"/>
<path d="M40.4449 15.5142H22.9827C19.103 15.5142 15.9424 18.6748 15.9424 22.5545V40.0167C15.9424 43.9027 19.103 47.057 22.9827 47.057H40.4449C44.331 47.057 47.4852 43.9027 47.4852 40.0167V22.5545C47.4852 18.6748 44.331 15.5142 40.4449 15.5142ZM31.7138 41.5055C26.0803 41.5055 21.4939 36.9191 21.4939 31.2856C21.4939 25.652 26.0803 21.072 31.7138 21.072C37.3474 21.072 41.9337 25.652 41.9337 31.2856C41.9337 36.9191 37.3474 41.5055 31.7138 41.5055ZM42.1482 22.9267C40.9559 22.9267 39.9843 21.9615 39.9843 20.7692C39.9843 19.5769 40.9559 18.6054 42.1482 18.6054C43.3405 18.6054 44.312 19.5769 44.312 20.7692C44.312 21.9615 43.3405 22.9267 42.1482 22.9267Z" fill="white"/>
</svg>
