<svg width="73" height="24" viewBox="0 0 73 24" fill="none" xmlns="http://www.w3.org/2000/svg">
<path d="M31.2004 12.6301C31.2004 16.083 28.4992 18.6274 25.1842 18.6274C21.8692 18.6274 19.168 16.083 19.168 12.6301C19.168 9.15287 21.8692 6.63281 25.1842 6.63281C28.4992 6.63281 31.2004 9.15287 31.2004 12.6301ZM28.5668 12.6301C28.5668 10.4724 27.0012 8.99604 25.1842 8.99604C23.3672 8.99604 21.8016 10.4724 21.8016 12.6301C21.8016 14.7662 23.3672 16.2642 25.1842 16.2642C27.0012 16.2642 28.5668 14.7635 28.5668 12.6301Z" fill="white"/>
<path d="M44.1789 12.6301C44.1789 16.083 41.4777 18.6274 38.1627 18.6274C34.8477 18.6274 32.1465 16.083 32.1465 12.6301C32.1465 9.15557 34.8477 6.63281 38.1627 6.63281C41.4777 6.63281 44.1789 9.15287 44.1789 12.6301ZM41.5453 12.6301C41.5453 10.4724 39.9797 8.99604 38.1627 8.99604C36.3457 8.99604 34.7801 10.4724 34.7801 12.6301C34.7801 14.7662 36.3457 16.2642 38.1627 16.2642C39.9797 16.2642 41.5453 14.7635 41.5453 12.6301Z" fill="white"/>
<path d="M56.6172 6.99514V17.7622C56.6172 22.1912 54.0052 24.0001 50.9173 24.0001C48.0106 24.0001 46.2612 22.056 45.6014 20.4661L47.8943 19.5116C48.3026 20.4877 49.3031 21.6396 50.9146 21.6396C52.8912 21.6396 54.1161 20.4201 54.1161 18.1245V17.2619H54.0241C53.4347 17.9893 52.299 18.6247 50.8659 18.6247C47.8673 18.6247 45.1201 16.0127 45.1201 12.6517C45.1201 9.26643 47.8673 6.63281 50.8659 6.63281C52.2963 6.63281 53.432 7.26823 54.0241 7.97396H54.1161V6.99784H56.6172V6.99514ZM54.3026 12.6517C54.3026 10.54 52.8939 8.99604 51.1012 8.99604C49.2842 8.99604 47.7618 10.54 47.7618 12.6517C47.7618 14.7419 49.2842 16.2642 51.1012 16.2642C52.8939 16.2642 54.3026 14.7419 54.3026 12.6517Z" fill="white"/>
<path d="M60.7406 0.684082V18.2596H58.1719V0.684082H60.7406Z" fill="white"/>
<path d="M70.7507 14.6037L72.7949 15.9665C72.1351 16.9426 70.5452 18.6245 67.798 18.6245C64.3911 18.6245 61.8467 15.9909 61.8467 12.6272C61.8467 9.06071 64.4127 6.62988 67.5033 6.62988C70.6155 6.62988 72.1378 9.10667 72.6353 10.4451L72.9084 11.1265L64.8913 14.4469C65.5051 15.6502 66.4596 16.264 67.798 16.264C69.1392 16.264 70.0693 15.6042 70.7507 14.6037ZM64.4587 12.446L69.8178 10.2207C69.5231 9.4717 68.6362 8.94985 67.5925 8.94985C66.2541 8.94985 64.3911 10.1315 64.4587 12.446Z" fill="white"/>
<path d="M9.44479 11.0698V8.52546H18.0189C18.1027 8.9689 18.146 9.49346 18.146 10.0613C18.146 11.9703 17.6242 14.3308 15.9423 16.0126C14.3064 17.7161 12.2163 18.6246 9.4475 18.6246C4.31546 18.6246 0 14.4443 0 9.3123C0 4.18026 4.31546 0 9.4475 0C12.2866 0 14.3091 1.11402 15.8288 2.56602L14.0333 4.36142C12.9437 3.33934 11.4673 2.54439 9.44479 2.54439C5.69716 2.54439 2.76611 5.56467 2.76611 9.3123C2.76611 13.0599 5.69716 16.0802 9.44479 16.0802C11.8756 16.0802 13.26 15.1041 14.1469 14.2172C14.8662 13.498 15.3393 12.4705 15.5259 11.0671L9.44479 11.0698Z" fill="white"/>
</svg>
