<svg width="110" height="37" viewBox="0 0 110 37" fill="none" xmlns="http://www.w3.org/2000/svg">
<path d="M37.3805 10.4614C32.2996 10.4704 28.3977 14.394 28.4117 19.4799C28.4257 24.5429 32.3582 28.4321 37.4607 28.4194C42.5351 28.4079 46.4574 24.4665 46.4371 19.3997C46.4167 14.3329 42.4855 10.4513 37.3805 10.4614ZM39.3843 24.4461C37.4823 25.2927 35.6834 24.9554 34.1214 23.5932C32.0985 21.8262 31.7649 18.4321 33.3461 16.1584C33.7808 15.5213 34.3588 14.9951 35.0337 14.6219C35.7087 14.2487 36.4618 14.039 37.2325 14.0097C38.0031 13.9803 38.77 14.1322 39.4714 14.4529C40.1727 14.7737 40.7891 15.2545 41.271 15.8567C42.0641 16.8294 42.4766 18.0617 42.4753 19.8771C42.4002 21.7129 41.509 23.499 39.3843 24.4461Z" fill="#DB4437"/>
<path d="M56.9999 10.4548C51.886 10.4625 47.9611 14.3861 47.9751 19.4937C47.9853 24.5337 51.9382 28.4281 57.0356 28.4217C62.091 28.4153 66.0171 24.5108 66.0222 19.4898C66.026 14.3708 62.1075 10.4485 56.9999 10.4548ZM56.3481 24.8253C54.4245 24.6101 52.7835 23.1448 52.1839 21.1143C51.4201 18.5223 52.5022 15.7203 54.7008 14.5834C57.8911 12.9284 61.6377 15.0379 62.0146 18.6954C62.04 18.95 62.0451 19.2047 62.0489 19.276C62.0477 22.7871 59.5053 25.1792 56.3481 24.8253Z" fill="#F4B400"/>
<path d="M97.6577 22.1477C101.623 20.5054 105.592 18.8619 109.632 17.1904C109.322 16.4774 109.081 15.8422 108.778 15.2375C106.497 10.7079 101.59 9.10762 97.3497 11.5787C94.568 13.2005 93.3267 15.79 93.1485 18.9294C92.7781 25.7199 99.2376 30.3221 105.481 27.7212C107.12 27.0376 108.409 25.9122 109.44 24.438L106.385 22.4138C103.872 26.1439 98.8748 25.2973 97.6577 22.1477ZM100.548 14.0981C102.343 13.5888 104.198 14.2992 104.95 15.8422L96.9894 19.1522C96.792 16.8835 98.3452 14.7219 100.548 14.0981Z" fill="#DB4437"/>
<path d="M26.9684 13.2021H26.2427C22.5305 13.2021 18.8182 13.2021 15.1059 13.2021C14.8742 13.2021 14.6438 13.2314 14.4121 13.2467H14.2848C14.2491 13.2671 14.1842 13.2862 14.1842 13.3078C14.1677 14.4765 14.1524 15.6464 14.1613 16.8164C14.1613 16.8711 14.3879 16.9233 14.5088 16.9768C14.6548 16.9992 14.8018 17.0141 14.9493 17.0214C17.6992 17.0214 20.4498 17.0214 23.2014 17.0214C23.0079 19.4402 21.9665 21.3778 20.0009 22.8329C15.9181 25.8577 8.00089 25.3396 5.07792 18.6738C3.38346 14.81 3.87741 11.0774 6.62597 7.83359C9.33507 4.63436 13.5642 3.51787 17.414 4.92207C18.7023 5.39184 19.8647 6.20278 21.0066 6.8164L23.6877 4.30463C23.6877 4.30463 23.4942 4.16078 23.4191 4.09076C18.5254 -0.443924 11.0104 -0.713816 5.51585 3.45422C-1.08502 8.46631 -1.8947 17.938 3.80866 23.943C7.16703 27.4784 11.3478 28.8686 16.1575 28.3339C21.4916 27.7406 25.6469 24.0665 26.8182 18.9921C27.2664 17.093 27.3175 15.1219 26.9684 13.2021Z" fill="#4285F4"/>
<path d="M84.7879 11.0479H81.0846C81.0642 11.5011 81.0464 11.9263 81.0235 12.4305L80.2418 11.8372L79.3506 11.2414C77.6753 10.3083 75.9044 10.2484 74.1094 10.7538C70.6861 11.7163 68.0432 14.7895 67.6893 18.3031C67.2959 22.1949 68.7791 25.2401 72.1221 27.2872C74.8529 28.9588 78.5881 28.9066 80.8809 26.5234C80.9 26.5043 80.956 26.5234 81.0082 26.5234C81.0082 27.2618 81.0718 28.0027 80.9967 28.7283C80.7739 30.8633 79.6333 32.2458 77.7542 32.7563C75.7491 33.3012 73.7466 32.6494 72.5257 31.03C72.2342 30.6481 71.9999 30.2166 71.7109 29.757L68.3449 31.1574C70.2418 35.7073 75.2068 37.594 79.7275 35.8677L81.8357 34.6494C81.8422 34.6511 81.849 34.6514 81.8557 34.6502C81.8624 34.6491 81.8687 34.6466 81.8743 34.6429C81.88 34.6392 81.8848 34.6343 81.8884 34.6287C81.8921 34.623 81.8945 34.6166 81.8955 34.6099L82.0126 34.5017L82.14 34.3744L82.5702 33.925L82.5639 33.9097C82.8872 33.4985 83.2628 33.1179 83.5225 32.6698C84.4608 31.0517 84.8109 29.2745 84.8121 27.4196C84.8121 22.1185 84.8121 16.817 84.8121 11.5151C84.8159 11.3751 84.7994 11.23 84.7879 11.0479ZM80.8491 21.9161C79.9859 23.9989 78.1209 25.0683 75.9325 24.8353C73.9185 24.6214 72.1642 22.9575 71.7097 20.8073C71.6142 20.3553 71.5824 19.8881 71.548 19.5877C71.6231 17.4604 72.3347 15.8308 74.0305 14.7436C74.532 14.4128 75.0944 14.1851 75.6847 14.0737C76.2751 13.9623 76.8818 13.9694 77.4694 14.0946C78.057 14.2198 78.6139 14.4607 79.1075 14.8031C79.6012 15.1455 80.0218 15.5827 80.3449 16.0893C81.5352 17.9276 81.6816 19.9059 80.8491 21.9161Z" fill="#4285F4"/>
<path d="M87.4766 1.47571V27.8512H91.3594V1.47571H87.4766Z" fill="#0F9D58"/>
</svg>
