<svg width="47" height="47" viewBox="0 0 47 47" fill="none" xmlns="http://www.w3.org/2000/svg">
<rect width="46.6286" height="46.6286" rx="23.3143" fill="#A41C35"/>
<path d="M12.423 15.3652L22.7687 25.2556C23.0748 25.5484 23.4836 25.7222 23.916 25.7434C24.3484 25.7646 24.7737 25.6317 25.1095 25.3704L25.2424 25.2556L35.5811 15.3719C35.6149 15.4945 35.6371 15.6193 35.6487 15.7474L35.658 15.9424V29.3139C35.6582 29.8761 35.4361 30.4176 35.0361 30.8299C34.6362 31.2422 34.088 31.4947 33.5015 31.5369L33.3266 31.5424H14.6752C14.087 31.5426 13.5205 31.3303 13.0892 30.948C12.6579 30.5657 12.3937 30.0417 12.3496 29.481L12.3438 29.3139V15.9424C12.3438 15.8087 12.3554 15.6795 12.3787 15.5524L12.423 15.3652ZM33.3266 13.7139C33.4677 13.7139 33.6064 13.725 33.7404 13.7484L33.9386 13.7919L24.0067 23.2856L14.0713 13.7896C14.1996 13.7562 14.3325 13.7339 14.4677 13.7228L14.6752 13.7139H33.3266Z" fill="white"/>
</svg>
