<svg width="63" height="63" viewBox="0 0 63 63" fill="none" xmlns="http://www.w3.org/2000/svg">
<path d="M62.6283 31.2859C62.6283 14.2421 48.815 0.428711 31.7712 0.428711C14.7275 0.428711 0.914062 14.2421 0.914062 31.2859C0.914062 48.3296 14.7275 62.143 31.7712 62.143C31.952 62.143 32.1328 62.143 32.3136 62.1309V38.1202H25.6842V30.3939H32.3136V24.7046C32.3136 18.1113 36.3395 14.5193 42.2217 14.5193C45.0422 14.5193 47.465 14.7242 48.1641 14.8207V21.7153H44.1141C40.9199 21.7153 40.2931 23.2341 40.2931 25.464V30.3818H47.9471L46.9467 38.1082H40.2931V60.9497C53.1904 57.2492 62.6283 45.3765 62.6283 31.2859Z" fill="#A41C35"/>
</svg>
