<svg width="128" height="128" viewBox="0 0 128 128" fill="none" xmlns="http://www.w3.org/2000/svg">
<rect width="128" height="128" rx="16" fill="#A41C35"/>
<g clip-path="url(#clip0_156_591)">
<path d="M85.0938 66.3438C74.7385 66.3438 66.3438 74.7385 66.3438 85.0938C66.3438 95.449 74.7385 104 85.0938 104C95.449 104 104 95.449 104 85.0938C104 74.7385 95.449 66.3438 85.0938 66.3438ZM85.0938 82.75C88.9707 82.75 92.125 85.9043 92.125 89.7812C92.125 92.833 90.1597 95.4099 87.4375 96.381V101.656H82.75V96.381C80.0278 95.4099 78.0625 92.833 78.0625 89.7812H82.75C82.75 91.0746 83.8004 92.125 85.0938 92.125C86.3871 92.125 87.4375 91.0746 87.4375 89.7812C87.4375 88.4879 86.3871 87.4375 85.0938 87.4375C81.2168 87.4375 78.0625 84.2832 78.0625 80.4062C78.0625 77.3545 80.0278 74.7776 82.75 73.8065V68.6875H87.4375V73.8065C90.1597 74.7776 92.125 77.3545 92.125 80.4062H87.4375C87.4375 79.1129 86.3871 78.0625 85.0938 78.0625C83.8004 78.0625 82.75 79.1129 82.75 80.4062C82.75 81.6996 83.8004 82.75 85.0938 82.75Z" fill="white"/>
<path d="M94.4688 28.6875H85.0938V24H80.4062V28.6875H75.7188V24H71.0312V28.6875H47.5938V24H42.9062V28.6875H38.2188V24H33.5312V28.6875H24V42.9062H94.4688V28.6875Z" fill="white"/>
<path d="M61.6562 85.0937C61.6562 72.1714 72.1714 61.6562 85.0938 61.6562C88.4305 61.6562 91.5928 62.3801 94.4688 63.6429V47.5937H24V94.4687H63.6429C62.3801 91.5928 61.6562 88.4305 61.6562 85.0937ZM75.7188 52.2812H85.0938V56.9687H75.7188V52.2812ZM61.6562 52.2812H71.0312V56.9687H61.6562V52.2812ZM61.6562 61.6562H71.0312V66.3437H61.6562V61.6562ZM42.9062 75.7187H33.5312V71.0312H42.9062V75.7187ZM42.9062 66.3437H33.5312V61.6562H42.9062V66.3437ZM42.9062 56.9687H33.5312V52.2812H42.9062V56.9687ZM56.9688 75.7187H47.5938V71.0312H56.9688V75.7187ZM56.9688 66.3437H47.5938V61.6562H56.9688V66.3437ZM56.9688 56.9687H47.5938V52.2812H56.9688V56.9687Z" fill="white"/>
</g>
<defs>
<clipPath id="clip0_156_591">
<rect width="80" height="80" fill="white" transform="translate(24 24)"/>
</clipPath>
</defs>
</svg>
