<svg width="128" height="128" viewBox="0 0 128 128" fill="none" xmlns="http://www.w3.org/2000/svg">
<rect width="128" height="128" rx="16" fill="#A41C35"/>
<g clip-path="url(#clip0_156_586)">
<path d="M93.078 36.5243L97.9355 36.1166L97.5433 31.4428L84.2576 32.5578L85.3728 45.8435L90.0466 45.4512L89.5582 39.6316C95.802 46.1582 99.3098 54.8129 99.3098 63.9998C99.3098 73.4313 95.6369 82.2983 88.9678 88.9675C82.2988 95.6367 73.4316 99.3095 64.0001 99.3095C54.5685 99.3095 45.7013 95.6369 39.0322 88.9678C32.363 82.2988 28.6902 73.4316 28.6902 64.0001C28.6902 54.5685 32.3631 45.7013 39.0322 39.0322C45.7012 32.363 54.5684 28.6902 64.0001 28.6902V24C53.3158 24 43.2709 28.1607 35.7159 35.7159C28.1607 43.2707 24 53.3156 24 64.0001C24 74.6846 28.1607 84.7293 35.7159 92.2843C43.2709 99.8393 53.3158 104 64.0001 104C74.6844 104 84.7293 99.8395 92.2843 92.2843C99.8393 84.7293 104 74.6844 104 64.0001C104 53.6539 100.074 43.9028 93.078 36.5243Z" fill="white"/>
<path d="M61.6549 44.7899V39.294C49.8385 40.4069 40.4068 49.8384 39.2939 61.655H44.7898V66.3452H39.2939C40.4068 78.1616 49.8383 87.5933 61.6549 88.7061V83.2103H66.3451V88.7061C78.1615 87.5933 87.5932 78.1617 88.706 66.3452H83.2102V61.655H88.706C87.5932 49.8386 78.1616 40.4069 66.3451 39.294V44.7899H61.6549ZM66.3451 65.0915L57.5203 72.517L54.5006 68.9282L61.6549 62.9085V49.7218H66.3451V65.0915Z" fill="white"/>
</g>
<defs>
<clipPath id="clip0_156_586">
<rect width="80" height="80" fill="white" transform="translate(24 24)"/>
</clipPath>
</defs>
</svg>
