<svg width="128" height="128" viewBox="0 0 128 128" fill="none" xmlns="http://www.w3.org/2000/svg">
<rect width="128" height="128" rx="16" fill="#A41C35"/>
<g clip-path="url(#clip0_2037_4209)">
<path d="M78.2188 52.4375C64.003 52.4375 52.4375 64.003 52.4375 78.2188C52.4375 92.4345 64.003 104 78.2188 104C92.4345 104 104 92.4345 104 78.2188C104 64.003 92.4345 52.4375 78.2188 52.4375ZM78.2188 75.875C82.0959 75.875 85.25 79.0291 85.25 82.9062C85.25 85.9578 83.2847 88.535 80.5625 89.5058V94.625H75.875V89.5058C73.1528 88.535 71.1875 85.9578 71.1875 82.9062H75.875C75.875 84.1994 76.9256 85.25 78.2188 85.25C79.5119 85.25 80.5625 84.1994 80.5625 82.9062C80.5625 81.6131 79.5119 80.5625 78.2188 80.5625C74.3416 80.5625 71.1875 77.4084 71.1875 73.5312C71.1875 70.4797 73.1528 67.9025 75.875 66.9317V61.8125H80.5625V66.9317C83.2847 67.9025 85.25 70.4797 85.25 73.5312H80.5625C80.5625 72.2381 79.5119 71.1875 78.2188 71.1875C76.9256 71.1875 75.875 72.2381 75.875 73.5312C75.875 74.8244 76.9256 75.875 78.2188 75.875Z" fill="white"/>
<path d="M50.0938 52.4375C64.55 52.4375 75.875 46.26 75.875 38.375C75.875 30.49 64.55 24 50.0938 24C35.6375 24 24 30.49 24 38.375C24 46.26 35.6375 52.4375 50.0938 52.4375Z" fill="white"/>
<path d="M24 76.7432V80.5621C24 88.4471 35.6375 94.6246 50.0938 94.6246C50.9137 94.6246 51.7083 94.5491 52.5156 94.5096C50.7178 91.6829 49.377 88.5463 48.5875 85.1932C38.1336 84.9046 29.0566 81.6922 24 76.7432Z" fill="white"/>
<path d="M47.8627 80.4427C47.8089 79.7055 47.75 78.9691 47.75 78.2183C47.75 75.775 48.0702 73.4104 48.6161 71.1319C38.1492 70.8483 29.0611 67.6343 24 62.6807V66.4996C24 73.9663 34.5097 79.8343 47.8627 80.4427Z" fill="white"/>
<path d="M50.0938 66.4996C50.0963 66.4996 50.0983 66.4993 50.1009 66.4993C51.6467 62.8049 53.8938 59.4746 56.6842 56.6843C54.5675 56.9518 52.38 57.1246 50.0938 57.1246C38.9661 57.1246 29.3009 53.8063 24 48.6182V52.4371C24 60.3221 35.6375 66.4996 50.0938 66.4996Z" fill="white"/>
</g>
<defs>
<clipPath id="clip0_2037_4209">
<rect width="80" height="80" fill="white" transform="translate(24 24)"/>
</clipPath>
</defs>
</svg>
