<svg width="49" height="49" viewBox="0 0 49 49" fill="none" xmlns="http://www.w3.org/2000/svg">
<ellipse cx="24.4624" cy="24.355" rx="24.355" ry="24.355" fill="currentColor"/>
<path d="M17.4564 36.3056H12.257V19.9428H17.4564V36.3056ZM14.8567 17.649C13.1746 17.649 11.9512 16.4256 11.9512 14.7434C11.9512 13.0613 13.3275 11.8379 14.8567 11.8379C16.5389 11.8379 17.7623 13.0613 17.7623 14.7434C17.7623 16.4256 16.5389 17.649 14.8567 17.649ZM36.4189 36.3056H31.2195V27.4361C31.2195 24.8364 30.1491 24.0718 28.6198 24.0718C27.0906 24.0718 25.5614 25.2951 25.5614 27.589V36.3056H20.362V19.9428H25.2555V22.2367C25.7143 21.1662 27.5494 19.4841 30.1491 19.4841C33.0546 19.4841 36.1131 21.1662 36.1131 26.2127V36.3056H36.4189Z" fill="white"/>
</svg>
