<svg width="47" height="47" viewBox="0 0 47 47" fill="none" xmlns="http://www.w3.org/2000/svg">
<rect width="46.6286" height="46.6286" rx="23.3143" fill="#A41C35"/>
<path d="M24.0006 23.3145C24.7077 23.3145 25.3133 23.0726 25.8173 22.5888C26.3204 22.1058 26.572 21.5248 26.572 20.846C26.572 20.1671 26.3204 19.5858 25.8173 19.1019C25.3133 18.6189 24.7077 18.3774 24.0006 18.3774C23.2934 18.3774 22.6883 18.6189 22.1851 19.1019C21.6811 19.5858 21.4291 20.1671 21.4291 20.846C21.4291 21.5248 21.6811 22.1058 22.1851 22.5888C22.6883 23.0726 23.2934 23.3145 24.0006 23.3145ZM24.0006 35.6574C20.5506 32.8391 17.974 30.2212 16.2708 27.8036C14.5668 25.3869 13.7148 23.15 13.7148 21.0928C13.7148 18.0071 14.749 15.5488 16.8173 13.718C18.8847 11.8871 21.2791 10.9717 24.0006 10.9717C26.722 10.9717 29.1164 11.8871 31.1838 13.718C33.2521 15.5488 34.2863 18.0071 34.2863 21.0928C34.2863 23.15 33.4347 25.3869 31.7316 27.8036C30.0276 30.2212 27.4506 32.8391 24.0006 35.6574Z" fill="white"/>
</svg>
