<svg width="48" height="49" viewBox="0 0 48 49" fill="none" xmlns="http://www.w3.org/2000/svg">
<rect y="0.5" width="48" height="48" rx="24" fill="#A41C35"/>
<g clip-path="url(#clip0_4376_1879)">
<path d="M24 24.5C24.6875 24.5 25.2762 24.2648 25.7662 23.7944C26.2554 23.3248 26.5 22.76 26.5 22.1C26.5 21.44 26.2554 20.8748 25.7662 20.4044C25.2762 19.9348 24.6875 19.7 24 19.7C23.3125 19.7 22.7242 19.9348 22.235 20.4044C21.745 20.8748 21.5 21.44 21.5 22.1C21.5 22.76 21.745 23.3248 22.235 23.7944C22.7242 24.2648 23.3125 24.5 24 24.5ZM24 36.5C20.6458 33.76 18.1408 31.2148 16.485 28.8644C14.8283 26.5148 14 24.34 14 22.34C14 19.34 15.0054 16.95 17.0162 15.17C19.0262 13.39 21.3542 12.5 24 12.5C26.6458 12.5 28.9737 13.39 30.9837 15.17C32.9946 16.95 34 19.34 34 22.34C34 24.34 33.1721 26.5148 31.5162 28.8644C29.8596 31.2148 27.3542 33.76 24 36.5Z" fill="white"/>
</g>
<defs>
<clipPath id="clip0_4376_1879">
<rect width="24" height="24" fill="white" transform="translate(12 12.5)"/>
</clipPath>
</defs>
</svg>
