<svg width="62" height="62" viewBox="0 0 62 62" fill="none" xmlns="http://www.w3.org/2000/svg">
<circle cx="30.8571" cy="30.8571" r="30.8571" fill="#A41C35"/>
<path d="M41.1999 35.7775L37.7165 35.3798C36.8799 35.2838 36.0571 35.5718 35.4674 36.1615L32.9439 38.685C29.0628 36.7101 25.8811 33.5421 23.9062 29.6473L26.4434 27.1101C26.7351 26.8186 26.957 26.4648 27.0924 26.0753C27.2278 25.6857 27.2732 25.2706 27.2251 24.861L26.8274 21.405C26.6628 20.0198 25.4971 18.9775 24.0982 18.9775H21.7256C20.1759 18.9775 18.8868 20.2667 18.9828 21.8164C19.7096 33.5284 29.0765 42.8815 40.7748 43.6084C42.3245 43.7044 43.6136 42.4153 43.6136 40.8655V38.493C43.6274 37.1078 42.5851 35.9421 41.1999 35.7775Z" fill="white"/>
</svg>
