<svg width="47" height="47" viewBox="0 0 47 47" fill="none" xmlns="http://www.w3.org/2000/svg">
<rect width="46.6286" height="46.6286" rx="23.3143" fill="#A41C35"/>
<path d="M34.298 35.658C31.5133 35.658 28.7989 35.0428 26.1549 33.8123C23.51 32.5818 21.1678 30.9412 19.1282 28.8904C17.0878 26.8396 15.4471 24.4918 14.2063 21.8469C12.9646 19.2029 12.3438 16.4885 12.3438 13.7038V13.0238C12.3438 12.7863 12.3653 12.5596 12.4085 12.3438H19.9857L21.1837 18.8523L17.4923 22.5761C18.399 24.1304 19.5379 25.5876 20.9092 26.9476C22.2795 28.3076 23.785 29.4841 25.4257 30.4771L29.1818 26.7209L35.658 28.0161V35.5933C35.4422 35.6149 35.2155 35.6313 34.978 35.6425C34.7406 35.6529 34.5139 35.658 34.298 35.658Z" fill="white"/>
</svg>
