<svg width="48" height="49" viewBox="0 0 48 49" fill="none" xmlns="http://www.w3.org/2000/svg">
<rect y="0.5" width="48" height="48" rx="24" fill="#A41C35"/>
<g clip-path="url(#clip0_4376_1863)">
<path d="M34.2971 36.1561C31.5123 36.1561 28.7979 35.5408 26.1539 34.3104C23.509 33.0799 21.1668 31.4393 19.1272 29.3885C17.0868 27.3377 15.4462 24.9898 14.2053 22.345C12.9636 19.7009 12.3428 16.9866 12.3428 14.2018V13.5218C12.3428 13.2843 12.3644 13.0577 12.4075 12.8418H19.9847L21.1828 19.3504L17.4913 23.0742C18.398 24.6285 19.537 26.0856 20.9082 27.4456C22.2785 28.8056 23.784 29.9821 25.4247 30.9751L29.1809 27.2189L35.6571 28.5142V36.0913C35.4412 36.1129 35.2145 36.1293 34.9771 36.1405C34.7396 36.1509 34.5129 36.1561 34.2971 36.1561Z" fill="white"/>
</g>
<defs>
<clipPath id="clip0_4376_1863">
<rect width="24" height="24" fill="white" transform="translate(12 12.5)"/>
</clipPath>
</defs>
</svg>
