<svg width="18" height="18" viewBox="0 0 18 18" fill="none" xmlns="http://www.w3.org/2000/svg">
<path d="M16.8187 6.84832C16.7483 6.62682 16.6127 6.43176 16.4295 6.28872C16.2463 6.14569 16.0241 6.06134 15.7922 6.04675L11.6156 5.75847L10.0687 1.85613C9.98428 1.64126 9.83726 1.45669 9.64671 1.32631C9.45617 1.19594 9.23087 1.12577 8.99999 1.12488C8.76912 1.12577 8.54382 1.19594 8.35328 1.32631C8.16273 1.45669 8.01571 1.64126 7.93124 1.85613L6.35625 5.77957L2.20781 6.04675C1.97613 6.06229 1.75445 6.14699 1.57143 6.28989C1.38842 6.43279 1.25249 6.62732 1.18124 6.84832C1.10808 7.0727 1.1038 7.31385 1.16897 7.54069C1.23414 7.76753 1.36576 7.96964 1.54687 8.12097L4.73906 10.821L3.78984 14.5546C3.72416 14.8071 3.73598 15.0736 3.82376 15.3194C3.91153 15.5652 4.07121 15.7789 4.28203 15.9327C4.48666 16.0796 4.73046 16.162 4.98223 16.1695C5.23399 16.1771 5.48228 16.1093 5.69531 15.9749L8.99296 13.8866H9.00703L12.5578 16.1296C12.74 16.2479 12.9523 16.3114 13.1695 16.3124C13.3469 16.311 13.5216 16.2689 13.6801 16.1895C13.8387 16.11 13.977 15.9953 14.0843 15.854C14.1915 15.7128 14.265 15.5488 14.299 15.3747C14.333 15.2007 14.3267 15.0211 14.2805 14.8499L13.275 10.7647L16.4531 8.12097C16.6342 7.96964 16.7659 7.76753 16.831 7.54069C16.8962 7.31385 16.8919 7.0727 16.8187 6.84832Z" fill="#FFC700"/>
</svg>
