<svg width="50" height="49" viewBox="0 0 50 49" fill="none" xmlns="http://www.w3.org/2000/svg">
<ellipse cx="24.9175" cy="24.355" rx="24.355" ry="24.355" fill="currentColor"/>
<path d="M22.6631 21.7753V20.7919C22.3262 20.7469 21.9837 20.7188 21.6299 20.7188C17.4131 20.7132 13.9824 24.1468 13.9824 28.3727C13.9824 30.9634 15.2739 33.2562 17.2503 34.6443C15.9757 33.2787 15.1952 31.4411 15.1952 29.4292C15.1952 25.2651 18.5305 21.8708 22.6631 21.7753Z" fill="#25F4EE"/>
<path d="M22.8475 32.934C24.7285 32.934 26.267 31.4336 26.3344 29.5679L26.34 12.8944H29.3833C29.3215 12.5516 29.2878 12.1976 29.2878 11.8379H25.1328L25.1271 28.5114C25.0598 30.3771 23.5213 31.8775 21.6403 31.8775C21.0563 31.8775 20.5061 31.7314 20.0176 31.4729C20.6464 32.3552 21.6796 32.934 22.8475 32.934Z" fill="#25F4EE"/>
<path d="M35.0718 18.5591V17.6319C33.9096 17.6319 32.8315 17.2891 31.9219 16.6934C32.7304 17.6206 33.8253 18.295 35.0718 18.5591Z" fill="#25F4EE"/>
<path d="M31.9092 16.6926C31.022 15.6755 30.4887 14.3493 30.4887 12.8994H29.377C29.6633 14.4842 30.6066 15.8441 31.9092 16.6926Z" fill="#FE2C55"/>
<path d="M21.6175 24.8794C19.6916 24.8794 18.125 26.4473 18.125 28.3748C18.125 29.718 18.8886 30.8868 20.0004 31.4713C19.5849 30.8981 19.3378 30.1956 19.3378 29.4313C19.3378 27.5038 20.9044 25.9359 22.8303 25.9359C23.1897 25.9359 23.5378 25.9977 23.8634 26.0989V21.8505C23.5265 21.8055 23.184 21.7773 22.8303 21.7773C22.7685 21.7773 22.7124 21.783 22.6506 21.783V25.0424C22.3193 24.9412 21.9768 24.8794 21.6175 24.8794Z" fill="#FE2C55"/>
<path d="M35.0737 18.5508V21.7821C32.9176 21.7821 30.9187 21.0909 29.2903 19.922V28.3795C29.2903 32.5999 25.8596 36.0392 21.6372 36.0392C20.0089 36.0392 18.4928 35.5221 17.252 34.6511C18.6501 36.1515 20.6434 37.0956 22.8501 37.0956C27.0668 37.0956 30.5032 33.662 30.5032 29.436V20.9785C32.1315 22.1474 34.1304 22.8386 36.2865 22.8386V18.6801C35.8654 18.6801 35.4611 18.6351 35.0737 18.5508Z" fill="#FE2C55"/>
<path d="M29.2946 28.3871V19.9295C30.923 21.0985 32.9218 21.7896 35.078 21.7896V18.5584C33.8315 18.2943 32.7365 17.6199 31.928 16.6926C30.6253 15.8441 29.6877 14.4842 29.39 12.8994H26.3468L26.3411 29.5728C26.2738 31.4386 24.7353 32.9391 22.8543 32.9391C21.6864 32.9391 20.6589 32.3602 20.0188 31.4836C18.907 30.8935 18.1434 29.7303 18.1434 28.3871C18.1434 26.4596 19.7099 24.8917 21.6359 24.8917C21.9952 24.8917 22.3433 24.9535 22.669 25.0547V21.7953C18.5364 21.8852 15.2012 25.2794 15.2012 29.4436C15.2012 31.4554 15.9816 33.2875 17.2562 34.6587C18.4971 35.5297 20.0132 36.0467 21.6415 36.0467C25.8583 36.0467 29.2946 32.6075 29.2946 28.3871Z" fill="white"/>
</svg>
