<svg width="49" height="49" viewBox="0 0 49 49" fill="none" xmlns="http://www.w3.org/2000/svg">
<ellipse cx="24.355" cy="24.355" rx="24.355" ry="24.355" fill="currentColor"/>
<path d="M38.0501 17.318C37.6837 16.0354 36.7675 15.1193 35.485 14.7528C33.2862 14.2031 23.9417 14.2031 23.9417 14.2031C23.9417 14.2031 14.7804 14.2031 12.3984 14.7528C11.1158 15.1193 10.1997 16.0354 9.83324 17.318C9.46679 19.6999 9.4668 24.4638 9.4668 24.4638C9.4668 24.4638 9.4668 29.2277 10.0165 31.6096C10.3829 32.8922 11.2991 33.8083 12.5816 34.1748C14.7804 34.7245 24.1249 34.7245 24.1249 34.7245C24.1249 34.7245 33.2862 34.7245 35.6681 34.1748C36.9507 33.8083 37.8669 32.8922 38.2333 31.6096C38.783 29.2277 38.783 24.4638 38.783 24.4638C38.783 24.4638 38.783 19.6999 38.0501 17.318ZM21.1933 28.8612V20.0664L28.8888 24.4638L21.1933 28.8612Z" fill="white"/>
</svg>
